<svg xmlns="http://www.w3.org/2000/svg" width="235.987" height="235.987" viewBox="0 0 235.987 235.987">
  <g id="Group_20" data-name="Group 20" transform="translate(-70 -130)">
    <circle id="Ellipse_21" data-name="Ellipse 21" cx="117.994" cy="117.994" r="117.994" transform="translate(70 130)" fill="#81b29a"/>
    <g id="Icon_Thumbs_Up_Rounded" data-name="Icon / Thumbs Up / Rounded" transform="translate(-101 -1673)">
      <rect id="Box" width="105.076" height="105.076" transform="translate(236 1868)" fill="none"/>
      <path id="Path_2022" data-name="Path 2022" d="M147.876,49.92a6.348,6.348,0,0,1,9.194,0,6.5,6.5,0,0,1,1.751,6.129l-3.94,20.139H179.4a13.273,13.273,0,0,1,12.259,18.388l-14.448,33.274a8.649,8.649,0,0,1-7.881,5.254h-39.4a8.782,8.782,0,0,1-8.756-8.756V80.567a8.644,8.644,0,0,1,2.627-6.129ZM103.656,133.1a8.782,8.782,0,0,1-8.756-8.756V89.324a8.756,8.756,0,1,1,17.513,0v35.025A8.782,8.782,0,0,1,103.656,133.1Z" transform="translate(145.04 1828.587)" fill="#fff"/>
    </g>
  </g>
</svg>
